<?xml version="1.0" standalone="no"?>
<!DOCTYPE svg PUBLIC "-//W3C//DTD SVG 20010904//EN"
 "http://www.w3.org/TR/2001/REC-SVG-20010904/DTD/svg10.dtd">
<svg version="1.0" xmlns="http://www.w3.org/2000/svg"
 width="1000.000000pt" height="1000.000000pt" viewBox="0 0 1000.000000 1000.000000"
 preserveAspectRatio="xMidYMid meet">

<g transform="translate(0.000000,1000.000000) scale(0.100000,-0.100000)"
fill="#000000" stroke="none">
<path d="M0 5000 l0 -5000 5000 0 5000 0 0 5000 0 5000 -5000 0 -5000 0 0
-5000z m5072 3383 c97 -202 146 -369 167 -565 43 -391 -55 -789 -271 -1107
-28 -42 -214 -287 -413 -546 -503 -654 -558 -731 -692 -965 -309 -538 -478
-1087 -460 -1495 24 -543 339 -1062 968 -1595 218 -185 358 -273 559 -351 468
-184 944 -129 1378 158 132 88 249 243 327 435 63 157 70 195 69 388 -1 175
-1 175 -38 283 -96 282 -250 531 -447 726 -93 92 -158 145 -744 606 -236 186
-493 389 -570 450 -77 61 -168 132 -202 158 -35 27 -63 53 -63 59 0 6 11 25
23 42 13 17 145 211 292 431 148 220 298 441 334 490 240 331 355 571 452 940
21 83 39 164 39 182 0 17 4 34 9 37 9 6 111 -183 167 -309 112 -250 160 -523
125 -700 -31 -154 -67 -227 -246 -505 -150 -232 -167 -263 -185 -339 -36 -151
48 -337 183 -407 27 -15 30 -14 85 34 143 124 277 282 367 435 81 134 174 362
202 491 l8 39 39 -59 c22 -32 82 -117 134 -188 155 -213 183 -280 183 -434 0
-164 -24 -214 -258 -536 -83 -113 -92 -130 -81 -146 7 -10 97 -108 199 -218
309 -332 457 -549 534 -786 50 -155 60 -223 60 -401 -1 -136 -5 -176 -27 -270
-51 -216 -114 -349 -253 -534 -587 -779 -1643 -1127 -2615 -861 -459 126 -830
346 -1165 691 -334 345 -545 767 -632 1264 -13 75 -17 156 -17 325 0 212 1
228 22 272 15 33 22 66 22 110 0 170 191 694 413 1133 133 264 343 637 518
923 52 84 139 228 195 320 56 92 174 282 262 422 280 443 536 859 692 1125 71
121 240 426 240 434 0 11 31 51 39 51 4 0 37 -62 73 -137z m-423 -4019 c178
-91 247 -289 162 -470 -39 -84 -117 -164 -159 -164 -23 0 -37 8 -56 33 -15 19
-26 42 -26 52 0 10 19 50 41 87 46 76 58 135 39 192 -31 96 -146 161 -239 136
-47 -12 -207 -116 -256 -166 -53 -54 -100 -130 -127 -205 -30 -85 -32 -238 -4
-318 59 -170 193 -302 374 -368 53 -20 92 -26 187 -30 193 -8 306 29 435 142
72 63 179 121 285 155 87 28 315 39 421 21 272 -48 497 -220 609 -465 48 -104
60 -166 59 -291 -2 -168 -41 -271 -156 -423 -97 -126 -288 -234 -491 -277
-213 -46 -383 28 -469 204 -28 55 -32 74 -32 145 -1 75 2 88 37 159 58 116
105 143 166 91 39 -32 40 -63 5 -147 -46 -109 -16 -206 82 -263 70 -41 132
-38 264 15 132 53 184 86 258 166 72 77 107 146 130 253 58 283 -142 565 -460
648 -48 12 -93 15 -193 12 -161 -6 -215 -25 -352 -129 -109 -82 -220 -139
-324 -169 -93 -27 -285 -37 -388 -21 -384 60 -671 372 -671 731 0 213 119 430
318 581 128 97 227 131 366 125 79 -3 97 -8 165 -42z m-391 -656 c5 -7 13 -29
17 -48 9 -40 46 -116 72 -145 10 -11 42 -40 71 -63 30 -26 52 -52 52 -64 0
-31 -19 -58 -41 -58 -18 0 -96 46 -140 82 -35 29 -80 105 -99 166 -23 73 -25
113 -8 130 16 16 63 15 76 0z m1614 -669 c60 -38 91 -75 130 -152 37 -73 49
-165 25 -186 -23 -19 -59 -10 -74 19 -7 14 -23 52 -34 85 -18 50 -34 73 -100
136 -43 42 -79 81 -79 88 0 7 5 21 11 33 14 27 55 19 121 -23z"/>
</g>
</svg>
